<svg width="1200" height="720" viewBox="0 0 1200 720" xmlns="http://www.w3.org/2000/svg">
  <defs>
    <linearGradient id="as-bg" x1="0" y1="0" x2="1" y2="1">
      <stop offset="0%" stop-color="#111824" />
      <stop offset="100%" stop-color="#1c2635" />
    </linearGradient>
  </defs>
  <rect width="1200" height="720" rx="48" fill="url(#as-bg)" />
  <g transform="translate(230 180)">
    <rect x="0" y="0" width="740" height="360" rx="30" fill="#0f1621" stroke="#283244" stroke-width="2" />
    <rect x="60" y="60" width="620" height="110" rx="18" fill="#151f2c" />
    <rect x="60" y="210" width="380" height="70" rx="18" fill="#151f2c" />
    <rect x="470" y="210" width="210" height="70" rx="18" fill="#151f2c" />
    <g fill="#8ea270" font-family="'Inter', sans-serif" font-weight="600">
      <text x="90" y="110" font-size="34">Virtual Tutor • Course Planning</text>
      <text x="90" y="250" font-size="30">Academic Advisor</text>
      <text x="500" y="250" font-size="30">Course Bot</text>
    </g>
    <circle cx="640" cy="310" r="32" fill="none" stroke="#7fa0ff" stroke-width="8" />
    <path d="M620 310 L638 328 L670 288" stroke="#7fa0ff" stroke-width="8" fill="none" stroke-linecap="round" stroke-linejoin="round" />
  </g>
  <g transform="translate(820 150)">
    <rect x="0" y="0" width="220" height="420" rx="34" fill="#151e2b" stroke="#2b384a" stroke-width="2" />
    <circle cx="110" cy="90" r="36" fill="#8ea270" opacity="0.8" />
    <rect x="48" y="170" width="124" height="32" rx="12" fill="#1f2b3b" />
    <rect x="48" y="230" width="124" height="32" rx="12" fill="#1f2b3b" />
    <rect x="48" y="290" width="124" height="32" rx="12" fill="#1f2b3b" />
  </g>
  <text x="600" y="640" text-anchor="middle" fill="#f2f3f0" font-family="'Inter', sans-serif" font-size="48" font-weight="600">AI-powered academic support</text>
</svg>
