<svg width="1200" height="720" viewBox="0 0 1200 720" xmlns="http://www.w3.org/2000/svg">
  <defs>
    <linearGradient id="aid-bg" x1="0" y1="0" x2="1" y2="1">
      <stop offset="0%" stop-color="#0b1014" />
      <stop offset="55%" stop-color="#121920" />
      <stop offset="100%" stop-color="#1b252d" />
    </linearGradient>
    <linearGradient id="aid-glow" x1="0" y1="0" x2="1" y2="0">
      <stop offset="0%" stop-color="#86a96b" stop-opacity="0" />
      <stop offset="50%" stop-color="#86a96b" stop-opacity="0.9" />
      <stop offset="100%" stop-color="#86a96b" stop-opacity="0" />
    </linearGradient>
    <linearGradient id="aid-accent" x1="0" y1="0" x2="1" y2="1">
      <stop offset="0%" stop-color="#8ea270" />
      <stop offset="100%" stop-color="#65806f" />
    </linearGradient>
    <linearGradient id="aid-warm" x1="0" y1="0" x2="1" y2="1">
      <stop offset="0%" stop-color="#c58a63" />
      <stop offset="100%" stop-color="#b76767" />
    </linearGradient>
    <filter id="aid-soft-glow" x="-40%" y="-40%" width="180%" height="180%">
      <feGaussianBlur stdDeviation="14" result="blur" />
      <feMerge>
        <feMergeNode in="blur" />
        <feMergeNode in="SourceGraphic" />
      </feMerge>
    </filter>
    <pattern id="aid-grid" width="28" height="28" patternUnits="userSpaceOnUse">
      <path d="M 28 0 L 0 0 0 28" fill="none" stroke="rgba(242,243,240,0.05)" stroke-width="1" />
    </pattern>
  </defs>

  <rect width="1200" height="720" rx="50" fill="url(#aid-bg)" />
  <rect x="52" y="52" width="1096" height="616" rx="38" fill="url(#aid-grid)" opacity="0.55" />

  <g opacity="0.8">
    <circle cx="140" cy="120" r="3" fill="#86a96b" />
    <circle cx="1060" cy="150" r="3" fill="#c58a63" />
    <circle cx="1030" cy="560" r="4" fill="#86a96b" />
    <circle cx="180" cy="560" r="2.5" fill="#f2f3f0" opacity="0.7" />
  </g>

  <g transform="translate(86 124)">
    <rect x="0" y="0" width="300" height="396" rx="28" fill="#0f151b" stroke="#27323c" stroke-width="2" />
    <text x="34" y="52" fill="#f2f3f0" font-family="'Inter', sans-serif" font-size="30" font-weight="600">Merchant Catalog</text>
    <text x="34" y="84" fill="#8e9188" font-family="'Inter', sans-serif" font-size="18">Structured product ingestion</text>

    <g transform="translate(28 122)">
      <rect x="0" y="0" width="244" height="84" rx="22" fill="#141c23" stroke="#2a353f" stroke-width="2" />
      <rect x="18" y="18" width="64" height="48" rx="14" fill="#1f2a34" />
      <rect x="100" y="20" width="110" height="14" rx="7" fill="#f2f3f0" opacity="0.88" />
      <rect x="100" y="44" width="80" height="12" rx="6" fill="#8ea270" opacity="0.85" />
      <rect x="186" y="44" width="38" height="12" rx="6" fill="#c58a63" opacity="0.72" />
    </g>

    <g transform="translate(28 224)">
      <rect x="0" y="0" width="244" height="84" rx="22" fill="#141c23" stroke="#2a353f" stroke-width="2" />
      <rect x="18" y="18" width="64" height="48" rx="14" fill="#1f2a34" />
      <rect x="100" y="20" width="100" height="14" rx="7" fill="#f2f3f0" opacity="0.88" />
      <rect x="100" y="44" width="60" height="12" rx="6" fill="#8ea270" opacity="0.85" />
      <rect x="168" y="44" width="56" height="12" rx="6" fill="#7397a4" opacity="0.8" />
    </g>

    <g transform="translate(28 326)">
      <rect x="0" y="0" width="244" height="42" rx="16" fill="#141c23" stroke="#2a353f" stroke-width="2" />
      <text x="22" y="27" fill="#b7b9b2" font-family="'Inter', sans-serif" font-size="16">price • brand • category • attributes</text>
    </g>
  </g>

  <g transform="translate(438 84)">
    <rect x="0" y="0" width="324" height="472" rx="32" fill="#10171d" stroke="#2a3540" stroke-width="2" />
    <text x="38" y="58" fill="#f2f3f0" font-family="'Inter', sans-serif" font-size="32" font-weight="600">Embedding + Retrieval</text>
    <text x="38" y="92" fill="#8e9188" font-family="'Inter', sans-serif" font-size="18">OpenAI embeddings API + OpenSearch</text>

    <rect x="38" y="124" width="248" height="108" rx="24" fill="#141c23" stroke="#2a3540" stroke-width="2" />
    <g transform="translate(64 150)">
      <circle cx="0" cy="0" r="8" fill="#86a96b" />
      <circle cx="46" cy="-22" r="8" fill="#f2f3f0" opacity="0.92" />
      <circle cx="94" cy="8" r="8" fill="#86a96b" />
      <circle cx="140" cy="-16" r="8" fill="#c58a63" opacity="0.92" />
      <circle cx="188" cy="10" r="8" fill="#86a96b" />
      <circle cx="224" cy="-24" r="8" fill="#f2f3f0" opacity="0.92" />
      <path d="M0 0 L46 -22 L94 8 L140 -16 L188 10 L224 -24" fill="none" stroke="url(#aid-accent)" stroke-width="4" stroke-linecap="round" stroke-linejoin="round" />
      <path d="M0 0 L94 8 L188 10" fill="none" stroke="#5f7887" stroke-width="2" opacity="0.55" />
      <path d="M46 -22 L140 -16 L224 -24" fill="none" stroke="#c58a63" stroke-width="2" opacity="0.35" />
    </g>

    <g transform="translate(38 270)">
      <rect x="0" y="0" width="248" height="138" rx="24" fill="#141c23" stroke="#2a3540" stroke-width="2" />
      <text x="22" y="30" fill="#b7b9b2" font-family="'Inter', sans-serif" font-size="18">Weighted recommendation logic</text>
      <rect x="22" y="48" width="204" height="16" rx="8" fill="#202a33" />
      <rect x="22" y="48" width="150" height="16" rx="8" fill="url(#aid-accent)" />
      <text x="22" y="88" fill="#f2f3f0" font-family="'Inter', sans-serif" font-size="16">semantic similarity</text>
      <rect x="22" y="102" width="204" height="12" rx="6" fill="#202a33" />
      <rect x="22" y="102" width="64" height="12" rx="6" fill="#86a96b" opacity="0.92" />
      <text x="100" y="112" fill="#8e9188" font-family="'Inter', sans-serif" font-size="14">completeness</text>
      <rect x="22" y="122" width="204" height="10" rx="5" fill="#202a33" />
      <rect x="22" y="122" width="32" height="10" rx="5" fill="url(#aid-warm)" opacity="0.82" />
      <text x="66" y="131" fill="#8e9188" font-family="'Inter', sans-serif" font-size="13">sponsorship / metadata</text>
    </g>

    <circle cx="304" cy="84" r="10" fill="#86a96b" opacity="0.8" filter="url(#aid-soft-glow)" />
    <circle cx="288" cy="418" r="8" fill="#c58a63" opacity="0.85" filter="url(#aid-soft-glow)" />
  </g>

  <g opacity="0.85">
    <path d="M384 324 C 420 324, 424 324, 438 324" fill="none" stroke="url(#aid-glow)" stroke-width="10" stroke-linecap="round" />
    <path d="M762 324 C 794 324, 808 324, 828 324" fill="none" stroke="url(#aid-glow)" stroke-width="10" stroke-linecap="round" />
    <circle cx="410" cy="324" r="8" fill="#86a96b" />
    <circle cx="786" cy="324" r="8" fill="#86a96b" />
  </g>

  <g transform="translate(828 124)">
    <rect x="0" y="0" width="286" height="396" rx="28" fill="#0f151b" stroke="#27323c" stroke-width="2" />
    <text x="32" y="52" fill="#f2f3f0" font-family="'Inter', sans-serif" font-size="30" font-weight="600">Agent Response</text>
    <text x="32" y="84" fill="#8e9188" font-family="'Inter', sans-serif" font-size="18">Hybrid recommendations + tracking</text>

    <g transform="translate(26 122)">
      <rect x="0" y="0" width="234" height="78" rx="22" fill="#141c23" stroke="#2a353f" stroke-width="2" />
      <rect x="16" y="18" width="132" height="14" rx="7" fill="#f2f3f0" opacity="0.9" />
      <rect x="16" y="42" width="96" height="12" rx="6" fill="#8ea270" opacity="0.92" />
      <rect x="152" y="16" width="64" height="22" rx="11" fill="#1f2a34" />
      <text x="184" y="31" text-anchor="middle" fill="#86a96b" font-family="'Inter', sans-serif" font-size="13" font-weight="600">rank 01</text>
    </g>

    <g transform="translate(26 220)">
      <rect x="0" y="0" width="234" height="78" rx="22" fill="#141c23" stroke="#2a353f" stroke-width="2" />
      <rect x="16" y="18" width="122" height="14" rx="7" fill="#f2f3f0" opacity="0.9" />
      <rect x="16" y="42" width="90" height="12" rx="6" fill="#86a96b" opacity="0.78" />
      <rect x="148" y="16" width="68" height="22" rx="11" fill="#2b2321" />
      <text x="182" y="31" text-anchor="middle" fill="#d59d73" font-family="'Inter', sans-serif" font-size="13" font-weight="600">sponsored</text>
    </g>

    <g transform="translate(26 318)">
      <rect x="0" y="0" width="234" height="48" rx="18" fill="#141c23" stroke="#2a353f" stroke-width="2" />
      <text x="18" y="30" fill="#b7b9b2" font-family="'Inter', sans-serif" font-size="15">JWT affiliate link + click_id</text>
    </g>
  </g>

  <text x="600" y="640" text-anchor="middle" fill="#f2f3f0" font-family="'Inter', sans-serif" font-size="48" font-weight="600">AID</text>
  <text x="600" y="676" text-anchor="middle" fill="#8e9188" font-family="'Inter', sans-serif" font-size="22">Agentic advertising and recommendation infrastructure</text>
</svg>
