<svg width="1200" height="720" viewBox="0 0 1200 720" xmlns="http://www.w3.org/2000/svg">
  <defs>
    <linearGradient id="pf-bg" x1="0" y1="0" x2="1" y2="1">
      <stop offset="0%" stop-color="#10141a" />
      <stop offset="100%" stop-color="#1b242c" />
    </linearGradient>
    <linearGradient id="pf-swipe" x1="0" y1="0" x2="1" y2="0">
      <stop offset="0%" stop-color="#7fdfa3" stop-opacity="0.3" />
      <stop offset="100%" stop-color="#7fdfa3" stop-opacity="0" />
    </linearGradient>
  </defs>
  <rect width="1200" height="720" rx="48" fill="url(#pf-bg)" />
  <g transform="translate(200 160)">
    <rect x="0" y="0" width="800" height="400" rx="28" fill="#0f1a21" stroke="#2c3b46" stroke-width="2" />
    <g font-family="'Inter', sans-serif" font-size="28" fill="#5c6d7a" opacity="0.8">
      <text x="40" y="80">@engagement_farm</text>
      <text x="40" y="150">@signal_hunter</text>
      <text x="40" y="220">@bot_cluster_32</text>
      <text x="40" y="290">@community_update</text>
      <text x="40" y="360">@product_news</text>
    </g>
    <rect x="-20" y="40" width="240" height="70" rx="16" fill="url(#pf-swipe)" />
    <rect x="290" y="110" width="240" height="70" rx="16" fill="url(#pf-swipe)" />
    <g stroke="#8ea270" stroke-linecap="round" stroke-width="10">
      <line x1="640" y1="60" x2="760" y2="60" />
      <line x1="640" y1="130" x2="760" y2="130" />
      <line x1="640" y1="200" x2="760" y2="200" />
    </g>
    <circle cx="720" cy="300" r="60" fill="none" stroke="#c96f5f" stroke-width="14" />
    <path d="M690 300 L708 318 L750 276" stroke="#c96f5f" stroke-width="10" fill="none" stroke-linecap="round" stroke-linejoin="round" />
  </g>
  <text x="600" y="640" text-anchor="middle" fill="#f2f3f0" font-family="'Inter', sans-serif" font-size="48" font-weight="600">Filtering signal from noise</text>
</svg>
