<svg width="1200" height="720" viewBox="0 0 1200 720" xmlns="http://www.w3.org/2000/svg">
  <defs>
    <linearGradient id="vaen-bg" x1="0" y1="0" x2="1" y2="1">
      <stop offset="0%" stop-color="#0a1014" />
      <stop offset="55%" stop-color="#111920" />
      <stop offset="100%" stop-color="#1b252d" />
    </linearGradient>
    <linearGradient id="vaen-accent" x1="0" y1="0" x2="1" y2="1">
      <stop offset="0%" stop-color="#8ea270" />
      <stop offset="100%" stop-color="#5d7f70" />
    </linearGradient>
    <linearGradient id="vaen-warm" x1="0" y1="0" x2="1" y2="1">
      <stop offset="0%" stop-color="#c58a63" />
      <stop offset="100%" stop-color="#b86b6b" />
    </linearGradient>
    <linearGradient id="vaen-flow" x1="0" y1="0" x2="1" y2="0">
      <stop offset="0%" stop-color="#86a96b" stop-opacity="0" />
      <stop offset="50%" stop-color="#86a96b" stop-opacity="0.95" />
      <stop offset="100%" stop-color="#86a96b" stop-opacity="0" />
    </linearGradient>
    <pattern id="vaen-grid" width="28" height="28" patternUnits="userSpaceOnUse">
      <path d="M 28 0 L 0 0 0 28" fill="none" stroke="rgba(242,243,240,0.05)" stroke-width="1" />
    </pattern>
  </defs>

  <rect width="1200" height="720" rx="50" fill="url(#vaen-bg)" />
  <rect x="52" y="52" width="1096" height="616" rx="38" fill="url(#vaen-grid)" opacity="0.5" />

  <g opacity="0.8">
    <circle cx="140" cy="120" r="3" fill="#86a96b" />
    <circle cx="1058" cy="154" r="3" fill="#c58a63" />
    <circle cx="180" cy="588" r="3" fill="#f2f3f0" opacity="0.7" />
    <circle cx="1020" cy="560" r="4" fill="#86a96b" />
  </g>

  <g transform="translate(84 122)">
    <rect x="0" y="0" width="292" height="404" rx="28" fill="#0f151b" stroke="#27323c" stroke-width="2" />
    <text x="32" y="50" fill="#f2f3f0" font-family="'Inter', sans-serif" font-size="30" font-weight="600">Manifest</text>
    <text x="32" y="82" fill="#8e9188" font-family="'Inter', sans-serif" font-size="18">Portable agent setup definition</text>

    <g transform="translate(28 120)">
      <rect x="0" y="0" width="236" height="220" rx="24" fill="#141c23" stroke="#2a353f" stroke-width="2" />
      <rect x="18" y="18" width="96" height="20" rx="10" fill="#1f2a34" />
      <text x="66" y="32" text-anchor="middle" fill="#86a96b" font-family="'Inter', sans-serif" font-size="12" font-weight="600">agent.yaml</text>
      <rect x="20" y="58" width="88" height="12" rx="6" fill="#f2f3f0" opacity="0.88" />
      <rect x="20" y="84" width="132" height="12" rx="6" fill="#8ea270" opacity="0.9" />
      <rect x="20" y="110" width="116" height="12" rx="6" fill="#7397a4" opacity="0.82" />
      <rect x="20" y="136" width="156" height="12" rx="6" fill="#c58a63" opacity="0.75" />
      <rect x="20" y="162" width="124" height="12" rx="6" fill="#f2f3f0" opacity="0.72" />
      <rect x="168" y="58" width="48" height="48" rx="14" fill="#1d2730" />
      <rect x="168" y="118" width="48" height="48" rx="14" fill="#1d2730" />
      <text x="192" y="87" text-anchor="middle" fill="#b7b9b2" font-family="'Inter', sans-serif" font-size="10">skills</text>
      <text x="192" y="147" text-anchor="middle" fill="#b7b9b2" font-family="'Inter', sans-serif" font-size="10">mcp</text>
    </g>

    <g transform="translate(28 356)">
      <rect x="0" y="0" width="236" height="28" rx="14" fill="#141c23" stroke="#2a353f" stroke-width="2" />
      <text x="20" y="19" fill="#b7b9b2" font-family="'Inter', sans-serif" font-size="14">instructions • skills • env vars • servers</text>
    </g>
  </g>

  <g opacity="0.88">
    <path d="M378 324 C 410 324, 420 324, 438 324" fill="none" stroke="url(#vaen-flow)" stroke-width="10" stroke-linecap="round" />
    <path d="M762 324 C 790 324, 806 324, 822 324" fill="none" stroke="url(#vaen-flow)" stroke-width="10" stroke-linecap="round" />
    <circle cx="408" cy="324" r="8" fill="#86a96b" />
    <circle cx="792" cy="324" r="8" fill="#86a96b" />
  </g>

  <g transform="translate(438 84)">
    <rect x="0" y="0" width="324" height="480" rx="32" fill="#10171d" stroke="#2a3540" stroke-width="2" />
    <text x="36" y="58" fill="#f2f3f0" font-family="'Inter', sans-serif" font-size="32" font-weight="600">Bundle Builder</text>
    <text x="36" y="92" fill="#8e9188" font-family="'Inter', sans-serif" font-size="18">Deterministic OCI image-layout archive</text>

    <g transform="translate(42 132)">
      <rect x="0" y="0" width="240" height="116" rx="24" fill="#141c23" stroke="#2a3540" stroke-width="2" />
      <path d="M48 28 H140 L170 58 V142 H48 Z" fill="#1b2630" stroke="#344250" stroke-width="2" />
      <path d="M140 28 V58 H170" fill="none" stroke="#344250" stroke-width="2" />
      <text x="108" y="92" text-anchor="middle" fill="#f2f3f0" font-family="'Inter', sans-serif" font-size="22" font-weight="600">.agent</text>
      <rect x="188" y="28" width="26" height="84" rx="13" fill="url(#vaen-accent)" />
      <rect x="198" y="42" width="6" height="12" rx="3" fill="#0f151b" opacity="0.75" />
      <rect x="198" y="62" width="6" height="12" rx="3" fill="#0f151b" opacity="0.75" />
      <rect x="198" y="82" width="6" height="12" rx="3" fill="#0f151b" opacity="0.75" />
    </g>

    <g transform="translate(42 282)">
      <rect x="0" y="0" width="240" height="162" rx="24" fill="#141c23" stroke="#2a3540" stroke-width="2" />
      <text x="22" y="28" fill="#b7b9b2" font-family="'Inter', sans-serif" font-size="18">Canonical bundle layout</text>
      <rect x="22" y="48" width="96" height="16" rx="8" fill="#8ea270" opacity="0.92" />
      <rect x="22" y="76" width="74" height="14" rx="7" fill="#7397a4" opacity="0.82" />
      <rect x="22" y="102" width="108" height="14" rx="7" fill="#c58a63" opacity="0.76" />
      <rect x="22" y="128" width="124" height="14" rx="7" fill="#f2f3f0" opacity="0.72" />
      <text x="132" y="60" fill="#f2f3f0" font-family="'Inter', sans-serif" font-size="13">instructions/</text>
      <text x="110" y="88" fill="#f2f3f0" font-family="'Inter', sans-serif" font-size="13">skills/</text>
      <text x="144" y="114" fill="#f2f3f0" font-family="'Inter', sans-serif" font-size="13">mcp/servers/</text>
      <text x="160" y="140" fill="#f2f3f0" font-family="'Inter', sans-serif" font-size="13">vaen/metadata.json</text>
    </g>
  </g>

  <g transform="translate(822 122)">
    <rect x="0" y="0" width="294" height="404" rx="28" fill="#0f151b" stroke="#27323c" stroke-width="2" />
    <text x="32" y="50" fill="#f2f3f0" font-family="'Inter', sans-serif" font-size="30" font-weight="600">Import Targets</text>
    <text x="32" y="82" fill="#8e9188" font-family="'Inter', sans-serif" font-size="18">Client-specific materialization</text>

    <g transform="translate(28 126)">
      <rect x="0" y="0" width="238" height="74" rx="22" fill="#141c23" stroke="#2a353f" stroke-width="2" />
      <rect x="16" y="18" width="84" height="18" rx="9" fill="#1f2a34" />
      <text x="58" y="31" text-anchor="middle" fill="#86a96b" font-family="'Inter', sans-serif" font-size="12" font-weight="600">Codex</text>
      <rect x="16" y="46" width="134" height="10" rx="5" fill="#f2f3f0" opacity="0.84" />
      <text x="164" y="55" fill="#b7b9b2" font-family="'Inter', sans-serif" font-size="13">AGENTS.md + skills</text>
    </g>

    <g transform="translate(28 222)">
      <rect x="0" y="0" width="238" height="74" rx="22" fill="#141c23" stroke="#2a353f" stroke-width="2" />
      <rect x="16" y="18" width="94" height="18" rx="9" fill="#1f2a34" />
      <text x="63" y="31" text-anchor="middle" fill="#c58a63" font-family="'Inter', sans-serif" font-size="12" font-weight="600">Claude</text>
      <rect x="16" y="46" width="126" height="10" rx="5" fill="#f2f3f0" opacity="0.84" />
      <text x="156" y="55" fill="#b7b9b2" font-family="'Inter', sans-serif" font-size="13">CLAUDE.md + MCP</text>
    </g>

    <g transform="translate(28 318)">
      <rect x="0" y="0" width="238" height="54" rx="18" fill="#141c23" stroke="#2a353f" stroke-width="2" />
      <text x="18" y="34" fill="#b7b9b2" font-family="'Inter', sans-serif" font-size="15">portable setup sharing across repos</text>
    </g>
  </g>

  <text x="600" y="642" text-anchor="middle" fill="#f2f3f0" font-family="'Inter', sans-serif" font-size="48" font-weight="600">VAEN</text>
  <text x="600" y="676" text-anchor="middle" fill="#8e9188" font-family="'Inter', sans-serif" font-size="22">Portable agent harness packaging and import workflow</text>
</svg>
